<?xml version="1.0" standalone="no"?>
<!DOCTYPE svg PUBLIC "-//W3C//DTD SVG 20010904//EN"
 "http://www.w3.org/TR/2001/REC-SVG-20010904/DTD/svg10.dtd">
<svg version="1.0" xmlns="http://www.w3.org/2000/svg"
 width="700.000000pt" height="700.000000pt" viewBox="0 0 700.000000 700.000000"
 preserveAspectRatio="xMidYMid meet">
<metadata>
Created by potrace 1.14, written by Peter Selinger 2001-2017
</metadata>
<g transform="translate(0.000000,700.000000) scale(0.100000,-0.100000)"
fill="#000000" stroke="none">
<path d="M1668 4840 c-16 -45 -129 -341 -193 -510 -35 -91 -97 -255 -139 -365
-41 -110 -110 -290 -152 -400 -42 -110 -84 -222 -94 -250 -81 -218 -228 -604
-239 -630 -5 -11 -21 -51 -35 -90 -14 -38 -31 -83 -37 -100 -7 -16 -13 -36
-15 -44 -6 -31 -26 -36 -157 -36 l-132 0 -3 -134 c-1 -76 1 -137 7 -140 7 -5
860 -6 894 -2 4 1 7 63 7 139 l0 137 -153 -1 c-83 0 -157 1 -163 4 -8 2 4 47
33 125 69 188 118 323 156 427 l34 95 537 0 537 0 100 -270 c139 -379 138
-375 131 -378 -4 -2 -72 -3 -150 -3 -79 1 -146 -3 -149 -7 -9 -14 -3 -261 7
-267 6 -4 1702 -5 1786 -1 20 1 20 6 20 138 l-1 137 -145 2 c-80 1 -148 2
-151 3 -3 0 -5 445 -5 989 1 603 5 986 10 985 5 -1 43 -82 83 -180 40 -98 77
-187 82 -198 11 -24 33 -79 191 -465 66 -162 132 -320 145 -350 13 -30 38 -91
55 -135 17 -44 38 -96 47 -115 8 -19 19 -44 24 -55 4 -11 28 -69 53 -130 24
-60 83 -204 131 -320 48 -115 95 -229 104 -252 9 -23 20 -45 24 -49 11 -11
208 -10 217 1 4 6 29 62 55 125 80 196 445 1079 465 1128 6 12 14 32 19 45 5
12 19 44 30 70 12 26 39 91 61 145 21 53 53 131 70 172 44 104 135 325 185
450 24 58 49 105 56 105 11 0 13 -177 14 -970 0 -533 -1 -977 -3 -985 -3 -14
-26 -16 -153 -15 l-150 0 3 -140 3 -140 450 0 450 0 3 140 3 140 -151 -1
c-101 0 -150 3 -151 10 -3 30 -4 2142 -1 2151 1 7 52 11 140 10 75 -1 143 1
150 3 9 3 12 40 12 138 0 121 -2 134 -17 135 -72 4 -696 3 -702 -1 -4 -3 -22
-41 -40 -85 -19 -44 -39 -93 -46 -110 -7 -16 -68 -163 -134 -325 -67 -162
-128 -308 -136 -325 -7 -16 -39 -93 -70 -170 -31 -77 -63 -153 -70 -170 -14
-32 -23 -52 -206 -495 -67 -162 -143 -347 -169 -410 -27 -63 -54 -116 -61
-118 -10 -1 -51 91 -128 280 -63 156 -122 301 -131 323 -25 57 -155 373 -325
790 -80 198 -152 374 -160 390 -7 17 -48 116 -90 220 -42 105 -81 194 -86 199
-5 6 -166 10 -384 10 -327 1 -375 -1 -376 -14 -3 -41 -4 -246 -1 -255 1 -7 58
-10 152 -10 l150 1 -2 -1086 -3 -1085 -285 0 -285 0 -114 305 c-154 414 -253
681 -356 960 -47 129 -99 269 -115 310 -16 41 -95 253 -175 470 -81 217 -148
397 -151 399 -2 2 -79 5 -170 5 l-166 1 -10 -25z m189 -392 c12 -35 79 -218
148 -408 70 -190 135 -367 145 -395 51 -145 100 -277 105 -285 4 -6 -156 -10
-429 -10 -410 0 -435 1 -429 18 3 9 18 51 34 92 45 121 130 354 133 365 2 6 6
17 9 25 5 14 45 121 153 420 80 219 89 240 99 240 6 0 21 -28 32 -62z"/>
</g>
</svg>
